# xmcd CD database file
#
# Track frame offsets:
#	150
#	22810
#	36800
#	59377
#
# Disc length: 1090 seconds
#
# Revision: 6
# Processed by: cddbd v1.5PL3 Copyright (c) Steve Scherf et al.
# Submitted via: CDex 1.50beta9
#
DISCID=27044004
DTITLE=Garnet Crow - 夢みたあとで
DYEAR=2002
DGENRE=Pop
TTITLE0=夢みたあとで
TTITLE1=幸福なペット
TTITLE2=夢みたあとで-Gomi's Lair Remix-
TTITLE3=夢みたあとで-Instrumental-
EXTD=YEAR: 2002
EXTT0=
EXTT1=
EXTT2=Gomi's Lair Mix
EXTT3=Instrumental
PLAYORDER=
